# xmcd
#
# Track frame offsets:
#	150
#	8590
#	30677
#	52342
#	74904
#	92457
#	111802
#	127481
#	147388
#	164737
#	184865
#	200367
#	215663
#	231870
#	249389
#	269179
#	288080
#
# Disc length: 4155 seconds
#
# Revision: 0
# Processed by: cddbd v1.5.2PL0 Copyright (c) Steve Scherf et al.
# Submitted via: EasyCDDAExtractor 11.0.2.1
#
DISCID=15103911
DTITLE=The Workhorse - Stuck In Tha Game
DYEAR=2004
DGENRE=Rap
TTITLE0=Time 2 Rec
TTITLE1=Gossip
TTITLE2=Yall Bout 2 Feel Me
TTITLE3=We Got Gunz
TTITLE4=Stop Blockin'
TTITLE5=Hatin'
TTITLE6=Smoke Weed
TTITLE7=Yeah I Got It
TTITLE8=Talk2um
TTITLE9=Really Do
TTITLE10=Stuck In Tha Game
TTITLE11=Problems
TTITLE12=Trust
TTITLE13=I Know You Hate Me
TTITLE14=Wash Yo Ass
TTITLE15=Lyrical Jack
TTITLE16=U Ain't No Gangsta
EXTD=
EXTT0=
EXTT1=
EXTT2=
EXTT3=
EXTT4=
EXTT5=
EXTT6=
EXTT7=
EXTT8=
EXTT9=
EXTT10=
EXTT11=
EXTT12=
EXTT13=
EXTT14=
EXTT15=
EXTT16=
PLAYORDER=
